<?xml version="1.0" standalone="no"?>
<!DOCTYPE svg PUBLIC "-//W3C//DTD SVG 20010904//EN"
 "http://www.w3.org/TR/2001/REC-SVG-20010904/DTD/svg10.dtd">
<svg version="1.0" xmlns="http://www.w3.org/2000/svg"
 width="724.000000pt" height="279.000000pt" viewBox="0 0 724.000000 279.000000"
 preserveAspectRatio="xMidYMid meet">

<g transform="translate(0.000000,279.000000) scale(0.100000,-0.100000)"
fill="#000000" stroke="none">
<path d="M581 2143 l-21 -18 2 -535 3 -534 25 -13 c36 -18 1534 -18 1570 0
l25 13 3 534 2 535 -21 18 c-20 16 -73 17 -794 17 -721 0 -774 -1 -794 -17z
m1368 -117 c-8 -7 -545 -451 -561 -464 -13 -11 -55 20 -299 224 -156 130 -286
238 -288 240 -2 2 256 4 574 4 318 0 576 -2 574 -4z m-1031 -261 c164 -136
201 -170 190 -180 -7 -7 -96 -81 -198 -165 -102 -84 -195 -162 -207 -173 l-23
-20 0 368 c0 350 1 367 18 353 9 -8 108 -91 220 -183z m1152 -165 c0 -198 -4
-360 -8 -360 -11 0 -422 343 -423 354 -1 7 418 365 429 366 1 0 2 -162 2 -360z
m-782 -141 c37 -31 72 -51 87 -51 14 0 49 20 85 48 33 27 65 49 71 49 6 0 103
-76 215 -170 l205 -170 -285 -3 c-156 -1 -416 -1 -576 0 l-291 3 208 172 c114
95 210 173 213 173 3 0 33 -23 68 -51z"/>
<path d="M5422 1990 c-191 -50 -351 -179 -436 -350 -60 -123 -80 -214 -73
-345 10 -183 70 -319 196 -446 193 -192 465 -254 723 -165 331 116 518 470
431 819 -58 235 -272 442 -509 492 -97 20 -243 18 -332 -5z m320 -180 c300
-92 447 -443 300 -714 -35 -64 -119 -156 -181 -195 -286 -184 -676 -18 -751
320 -7 33 -11 94 -8 146 3 77 9 100 41 167 42 89 142 198 217 236 121 63 262
77 382 40z"/>
<path d="M2616 1984 c-3 -8 -6 -308 -6 -664 0 -632 1 -650 19 -660 31 -16 832
-14 855 3 14 10 16 25 14 87 l-3 75 -345 5 -345 5 0 195 0 195 205 5 205 5 3
75 c2 62 0 77 -14 87 -13 10 -70 13 -211 13 l-193 0 0 205 0 205 348 2 347 3
0 85 0 85 -436 3 c-392 2 -437 1 -443 -14z"/>
<path d="M3636 1991 c-3 -4 111 -182 254 -395 l259 -386 3 -260 c3 -229 5
-261 20 -276 22 -22 131 -32 153 -14 13 10 15 54 15 277 l0 264 260 388 c143
213 260 393 260 400 0 8 -28 11 -102 9 l-103 -3 -200 -295 c-110 -162 -204
-295 -210 -294 -5 1 -99 134 -210 297 l-200 296 -97 1 c-53 0 -99 -4 -102 -9z"/>
<path d="M6514 1986 c-7 -17 24 -774 31 -787 8 -12 122 -12 130 1 8 13 37 779
30 791 -4 5 -47 9 -96 9 -67 0 -91 -3 -95 -14z"/>
<path d="M577 888 c-28 -22 -32 -63 -8 -87 21 -21 24 -21 800 -21 429 0 787 3
796 6 37 15 38 82 1 106 -6 4 -362 8 -792 8 -609 0 -784 -3 -797 -12z"/>
<path d="M6552 873 c-41 -20 -62 -59 -62 -114 0 -33 6 -47 34 -75 29 -29 41
-34 81 -34 58 0 99 27 115 76 22 65 -3 120 -67 153 -30 15 -62 13 -101 -6z"/>
<path d="M572 628 c-18 -18 -14 -73 6 -91 17 -16 87 -17 799 -17 743 0 781 1
796 18 21 23 22 66 1 86 -14 14 -100 16 -803 16 -599 0 -790 -3 -799 -12z"/>
</g>
</svg>
